<svg preserveAspectRatio="none" width="100%" height="100%" overflow="visible" style="display: block;" viewBox="0 0 393.796 60.326" fill="none" xmlns="http://www.w3.org/2000/svg">
<g id="Find My Chiro">
<path id="Vector" d="M377.493 46.0711C373.923 46.0711 370.904 45.3623 368.436 43.9447C366.021 42.5271 364.209 40.5844 363.002 38.1167C361.794 35.5965 361.19 32.735 361.19 29.5323C361.19 26.277 361.794 23.4155 363.002 20.9478C364.209 18.4276 366.021 16.4587 368.436 15.0411C370.904 13.6235 373.949 12.9147 377.572 12.9147C382.875 12.9147 386.891 14.4373 389.621 17.4826C392.404 20.5278 393.796 24.5444 393.796 29.5323C393.796 32.63 393.218 35.439 392.063 37.9592C390.908 40.4794 389.123 42.4746 386.707 43.9447C384.292 45.3623 381.221 46.0711 377.493 46.0711ZM377.493 39.2981C379.856 39.2981 381.641 38.7993 382.848 37.8017C384.109 36.8041 384.949 35.544 385.369 34.0214C385.789 32.4463 385.999 30.8711 385.999 29.296C385.999 27.6159 385.789 26.0145 385.369 24.4919C384.949 22.9692 384.109 21.7091 382.848 20.7116C381.641 19.6615 379.856 19.1364 377.493 19.1364C375.183 19.1364 373.398 19.6615 372.138 20.7116C370.93 21.7091 370.09 22.9692 369.617 24.4919C369.197 26.0145 368.987 27.6159 368.987 29.296C368.987 30.8711 369.197 32.4463 369.617 34.0214C370.09 35.544 370.93 36.8041 372.138 37.8017C373.398 38.7993 375.183 39.2981 377.493 39.2981Z" fill="var(--fill-0, white)"/>
<path id="Vector_2" d="M337.882 45.2835V12.9147H345.364L345.994 22.3655L345.915 29.296V45.2835H337.882ZM345.915 31.3437L345.679 24.1768C345.679 23.0743 345.889 21.8929 346.309 20.6328C346.729 19.3202 347.412 18.0864 348.357 16.9313C349.354 15.7762 350.641 14.8311 352.216 14.096C353.791 13.3085 355.734 12.9147 358.044 12.9147H359.225V21.8929H358.044C355.786 21.8929 353.87 22.0767 352.295 22.4442C350.719 22.7592 349.459 23.2843 348.514 24.0193C347.622 24.7544 346.965 25.7257 346.545 26.9333C346.125 28.1409 345.915 29.611 345.915 31.3437Z" fill="var(--fill-0, white)"/>
<path id="Vector_3" d="M324.318 45.2849V12.916H332.351V45.2849H324.318ZM328.335 8.74196C326.602 8.74196 325.421 8.29567 324.791 7.4031C324.213 6.51053 323.924 5.48669 323.924 4.3316C323.924 3.1765 324.213 2.17893 324.791 1.33886C325.421 0.446286 326.602 0 328.335 0C330.12 0 331.275 0.446286 331.8 1.33886C332.377 2.17893 332.666 3.1765 332.666 4.3316C332.666 5.48669 332.377 6.51053 331.8 7.4031C331.275 8.29567 330.12 8.74196 328.335 8.74196Z" fill="var(--fill-0, white)"/>
<path id="Vector_4" d="M287.733 45.2856V0.945825H296.002V19.9261H296.159C296.212 19.7686 296.396 19.3486 296.711 18.666C297.026 17.9309 297.577 17.1171 298.365 16.2246C299.152 15.332 300.202 14.5707 301.515 13.9406C302.88 13.2581 304.586 12.9168 306.634 12.9168C308.892 12.9168 310.756 13.3106 312.226 14.0981C313.696 14.8857 314.851 15.9095 315.691 17.1696C316.584 18.4297 317.214 19.8211 317.581 21.3437C318.001 22.8138 318.264 24.284 318.369 25.7541C318.474 27.1717 318.526 28.458 318.526 29.6131V45.2856H310.729V29.5344C310.729 27.8017 310.546 26.2266 310.178 24.809C309.863 23.3914 309.207 22.2363 308.209 21.3437C307.212 20.4511 305.689 20.0049 303.641 20.0049C301.594 20.0049 300.019 20.5037 298.916 21.5012C297.813 22.4463 297.052 23.6539 296.632 25.124C296.212 26.5941 296.002 28.1693 296.002 29.8494V45.2856H287.733Z" fill="var(--fill-0, white)"/>
<path id="Vector_5" d="M262.251 46.0714C258.103 46.0714 254.349 45.2314 250.988 43.5512C247.628 41.8186 244.951 39.2721 242.955 35.9119C241.013 32.5516 240.041 28.3512 240.041 23.3108C240.094 18.3754 241.091 14.1751 243.034 10.7098C244.977 7.24455 247.628 4.61934 250.988 2.83419C254.401 1.04905 258.234 0.156478 262.487 0.156478C266.582 0.156478 270.074 0.891537 272.962 2.36166C275.849 3.83177 278.159 5.82693 279.892 8.34714C281.677 10.8673 282.832 13.7026 283.357 16.8528H275.088C274.72 14.5426 273.854 12.7312 272.489 11.4186C271.176 10.0535 269.627 9.10845 267.842 8.58341C266.057 8.00586 264.272 7.71709 262.487 7.71709C257.814 7.71709 254.218 9.02969 251.697 11.6549C249.23 14.2801 247.996 17.9817 247.996 22.7595C247.996 27.8525 249.203 31.764 251.619 34.4942C254.086 37.2245 257.657 38.5896 262.329 38.5896C264.272 38.5896 266.162 38.3008 268 37.7233C269.838 37.0932 271.413 36.0956 272.725 34.7305C274.038 33.3129 274.878 31.4227 275.245 29.0601H283.594C283.016 32.2628 281.861 35.1768 280.128 37.802C278.396 40.3747 276.033 42.3961 273.04 43.8663C270.1 45.3364 266.504 46.0714 262.251 46.0714Z" fill="var(--fill-0, white)"/>
<path id="Vector_6" d="M189.624 60.326V54.1043H194.586C195.373 54.1043 196.056 54.0255 196.633 53.868C197.263 53.7105 197.867 53.2904 198.445 52.6079C199.022 51.9778 199.652 50.9278 200.335 49.4576L202.461 44.7323L189.86 12.9147H198.13L206.399 36.4628L215.299 12.9147H223.568L207.659 50.2452C206.714 52.4504 205.822 54.2093 204.982 55.5219C204.194 56.887 203.38 57.9108 202.54 58.5934C201.7 59.2759 200.729 59.7222 199.626 59.9322C198.524 60.1948 197.237 60.326 195.767 60.326H189.624Z" fill="var(--fill-0, white)"/>
<path id="Vector_7" d="M138.087 45.2856V0.945825H152.106L162.501 41.8204H162.659L172.976 0.945825H186.916V45.2856H178.568L179.119 4.56862H179.04L168.408 45.2856H156.595L146.12 4.56862H145.963L146.435 45.2856H138.087Z" fill="var(--fill-0, white)"/>
<path id="Vector_8" d="M96.4543 46.0732C93.2515 46.0732 90.6526 45.3907 88.6574 44.0255C86.7147 42.6604 85.2971 40.744 84.4046 38.2763C83.512 35.8086 83.0657 32.9472 83.0657 29.6919C83.0657 26.2791 83.512 23.3389 84.4046 20.8712C85.3496 18.351 86.7935 16.4083 88.7362 15.0432C90.7313 13.6256 93.304 12.9168 96.4543 12.9168C98.5019 12.9168 100.208 13.2581 101.573 13.9406C102.991 14.5707 104.094 15.332 104.881 16.2246C105.721 17.1171 106.325 17.9309 106.693 18.666C107.06 19.4011 107.27 19.8473 107.323 20.0049H107.48V0.945825H115.75V45.2856H108.819L107.48 39.5364H107.323C107.27 39.6414 107.034 40.0352 106.614 40.7178C106.246 41.4003 105.616 42.1616 104.724 43.0017C103.884 43.8418 102.781 44.5768 101.416 45.2069C100.051 45.7844 98.3969 46.0732 96.4543 46.0732ZM99.0532 39.3002C101.048 39.3002 102.65 38.8801 103.857 38.0401C105.117 37.2 106.01 36.0712 106.535 34.6535C107.113 33.1834 107.401 31.5033 107.401 29.6131C107.401 27.7755 107.139 26.1479 106.614 24.7302C106.089 23.2601 105.222 22.1313 104.015 21.3437C102.86 20.5037 101.285 20.0836 99.2895 20.0836C97.1368 20.0836 95.4305 20.5299 94.1703 21.4225C92.9628 22.315 92.1227 23.4964 91.6501 24.9665C91.1776 26.4366 90.9413 27.9855 90.9413 29.6131C90.9413 31.2408 91.1514 32.8159 91.5714 34.3385C92.0439 35.8086 92.8577 37.0162 94.0128 37.9613C95.2204 38.8539 96.9006 39.3002 99.0532 39.3002Z" fill="var(--fill-0, white)"/>
<path id="Vector_9" d="M47.559 45.2835V12.9147H54.4108L55.7497 19.924H55.9072C55.9597 19.7665 56.1434 19.3465 56.4585 18.6639C56.826 17.9288 57.4036 17.115 58.1911 16.2225C59.0312 15.3299 60.1338 14.5686 61.4989 13.9385C62.9165 13.256 64.6754 12.9147 66.7756 12.9147C69.0857 12.9147 70.9496 13.3085 72.3673 14.096C73.8374 14.8311 74.9925 15.8287 75.8325 17.0888C76.6726 18.2964 77.2502 19.6615 77.5652 21.1841C77.9327 22.6542 78.1427 24.1243 78.1952 25.5945C78.3002 27.0646 78.3527 28.4034 78.3527 29.611V45.2835H70.4771V29.5323C70.4771 27.7996 70.2933 26.2245 69.9258 24.8069C69.6108 23.3893 68.9545 22.2342 67.9569 21.3416C67.0118 20.449 65.5155 20.0028 63.4678 20.0028C61.3676 20.0028 59.7662 20.5016 58.6637 21.4991C57.5611 22.4442 56.7998 23.6518 56.3797 25.1219C55.9597 26.592 55.7497 28.1672 55.7497 29.8473V45.2835H47.559Z" fill="var(--fill-0, white)"/>
<path id="Vector_10" d="M34.3913 45.2849V12.916H42.4245V45.2849H34.3913ZM38.4079 8.74196C36.6753 8.74196 35.4939 8.29567 34.8639 7.4031C34.2863 6.51053 33.9975 5.48669 33.9975 4.3316C33.9975 3.1765 34.2863 2.17893 34.8639 1.33886C35.4939 0.446286 36.6753 0 38.4079 0C40.193 0 41.3481 0.446286 41.8732 1.33886C42.4507 2.17893 42.7395 3.1765 42.7395 4.3316C42.7395 5.48669 42.4507 6.51053 41.8732 7.4031C41.3481 8.29567 40.193 8.74196 38.4079 8.74196Z" fill="var(--fill-0, white)"/>
<path id="Vector_11" d="M7.87563 45.2856H0V0.945825H31.5813V7.87638H7.87563V18.7448H25.9896V25.2815H7.87563V45.2856Z" fill="var(--fill-0, white)"/>
</g>
</svg>
